<?xml version="1.0" encoding="utf-8"?>
<!-- Generator: Adobe Illustrator 23.1.0, SVG Export Plug-In . SVG Version: 6.00 Build 0)  -->
<svg version="1.1" id="Capa_1" xmlns="http://www.w3.org/2000/svg" xmlns:xlink="http://www.w3.org/1999/xlink" x="0px" y="0px"
	 viewBox="0 0 731.7 415.5" style="enable-background:new 0 0 731.7 415.5;" xml:space="preserve">
<style type="text/css">
	.st0{fill:#F2F2F2;}
	.st1{fill:#9A9E96;}
	.st2{fill:#FFFFFF;}
	.st3{fill:#4C6461;}
	.st4{fill:#A0616A;}
	.st5{fill:#2F2E41;}
	.st6{fill:#E6E6E6;}
</style>
<path class="st0" d="M79.5,306.8c-3.2,0.3-6.6,0.9-10.3,1.6c-15.6,3.2-15.9,13.7-15.7,16.1l-0.1-0.1c-1.6,2.5-2.5,5-3.1,7.4
	l-0.7-32.4c0.5-1,0.9-2,1.2-3.2c1.2,3.6,3.1,7,4.7,6.7c2.1-0.3,3.1-6.6,2.7-11.1c2.7,3.5,7.3,7.2,9,6.1c1.4-0.9,0.6-4.7-0.9-8.2
	c3.1,1.9,6.6,3.1,7.7,1.9c1.5-1.6-2.1-7.2-5.3-10.4c4.4,0.4,9.9-0.3,10.3-2.3c0.3-1.6-3-3.7-6.5-5c3.5-0.9,6.9-2.6,6.7-4.2
	c-0.1-1.9-5.1-3.2-9.3-3.4c3.2-2.5,6.1-6,5.2-7.5c-0.8-1.4-4.7-0.9-8.2,0.4c2.1-3,3.6-6.4,2.5-7.5c-1.4-1.4-6.4,1-9.8,3.8
	c0.7-4.3,0.3-9.7-1.6-10.2c-1.6-0.4-3.9,2.7-5.5,6.2c-0.7-3.6-2.1-7-3.7-7c-2.3,0-4.2,6.9-4.2,11.5c0,0.3,0,0.5,0,0.7
	c-0.2-0.3-0.5-0.5-0.8-0.8c-3.2-3.1-9.5-6.6-11.1-5c-1.1,1.2,0.4,4.5,2.5,7.5c-3.5-1.3-7.4-1.8-8.2-0.4c-1.1,1.9,3.6,6.8,7.5,9.1
	c-0.2,0-0.5-0.1-0.7-0.1c-4.5-0.3-11.6,1.1-11.7,3.4c-0.1,1.6,3.2,3.2,6.7,4.2c-3.5,1.3-6.8,3.4-6.5,5c0.4,2,5.9,2.7,10.3,2.3
	c-3.3,3.1-6.8,8.7-5.3,10.4c1.1,1.2,4.6,0,7.7-1.9c-1.5,3.5-2.3,7.3-0.9,8.2c1.8,1.2,6.8-3,9.5-6.7c-0.3,4.5,0.8,10.6,2.9,10.9
	c0.9,0.1,1.8-0.8,2.7-2.3l-2.4,34.8c-0.6,4.1,3,6.7,3.4,8.4l0.5,23.6c-0.6-1.7-1.4-3.4-2.4-5.1l-0.1,0.1c0.1-2.4-0.2-13-15.7-16.1
	c-3.7-0.7-7.1-1.3-10.3-1.6c-3.7-0.4-5.2,4.7-1.8,6.4c4.9,2.4,9.5,5.4,11.9,9c6.1,9.1,14.6,3.8,15.8,3c1.3,2.2,2.2,4.5,2.8,6.6
	l0.3,12.5c-0.1,0.3-0.1,0.5-0.1,0.5l0.1,0l0.7,30.3l6.2,0l-2.2-30.9c0.4-1.7,1.5-7.4,0-13.3l-2.2-24.3l0,0c0,0,0.1,0.6,0,0l-2.9-9.6
	c0.4-3,1.4-6.3,3.4-9.6c1.2,0.8,9.7,6.1,15.8-3c2.4-3.6,7-6.6,11.9-9C84.7,311.5,83.2,306.4,79.5,306.8L79.5,306.8z M51.2,378.4
	l-0.1-5.3C51.4,375.1,51.4,376.9,51.2,378.4z"/>
<g>
	<circle class="st1" cx="442.6" cy="361.3" r="54"/>
	<circle class="st2" cx="442.6" cy="361.3" r="36"/>
	<circle class="st1" cx="442.6" cy="361.3" r="20.5"/>
	<circle class="st1" cx="130.6" cy="361.3" r="54"/>
	<circle class="st2" cx="130.6" cy="361.3" r="36"/>
	<path class="st3" d="M516.5,335.7c-7-17.7-31.6-71.9-75.4-89.8c-0.3-0.1-0.7-0.2-1.1-0.3l-140.4-20.1c-2.3-0.3-4.5,1.3-4.8,3.6
		l-2.5,15.2c-0.2,1,0.1,2.1,0.6,3c7.1,11.1,52.8,86.1-20.4,86.1c-72,0-93.3-52.4-96.6-61.6c-0.3-0.9-0.3-1.8,0-2.7l22.2-70.3
		c0.4-1.2,0.2-2.5-0.5-3.6l9.8-18.1l17.9,10.1l9.2,0.1l31.6,16.5l6.4-10.5l-65.1-32.5c0,0,0.1-7.5-20.9-13.5l-33-15l-4,5l10,8l1,6
		l7,2l14,27l-4,7.7l4.9,2.4l-1.4-0.3c-2-0.5-4.1,0.6-4.9,2.5l-22.1,50.6c-0.3,0.8-0.9,1.4-1.6,1.9l-7.9,5.1c-0.7,0.5-1.3,1.2-1.6,2
		l-9,21.8c-0.3,0.7-0.4,1.4-0.3,2.1c-11.2,2.1-44.1,11.3-62.1,47.4l21,17c0,0,32.9-21.3,87.3,0.9c9.5,14.7,23.3,26.9,43.2,28.1
		c52.5,3,139.5,6,149.5-6c7.3-8.8,12.4-14.3,14.6-16.6c0.8-0.8,1.8-1.3,3-1.3l122.4-3.9C515.6,341.4,517.5,338.4,516.5,335.7z"/>
	<circle class="st1" cx="178.6" cy="162.3" r="16"/>
	<path class="st1" d="M434.8,245.9c-0.2,0-0.4,0-0.6,0l-133.8-5.2c-5.9-0.2-11-4-12.9-9.6l-1.8-5.3c-1.5-4.3-0.8-9,1.8-12.8
		c2.6-3.8,6.8-6,11.4-6.1l138.2-3.2c4.3-0.1,8.4,1.7,11.2,5c2.8,3.3,3.9,7.6,3.1,11.9l-2.6,13.7
		C447.5,241.1,441.7,245.9,434.8,245.9z"/>
	<circle class="st1" cx="130.6" cy="361.3" r="20.5"/>
	<path class="st1" d="M488.6,303c-3.2,0-6.3-1.7-7.9-4.7L470.5,280c-1.6-2.9-1.5-6.3,0.2-9.1c1.8-2.8,4.8-4.4,8.1-4.2l18.4,0.9
		c3.4,0.2,6.5,2.3,7.8,5.5l5.4,12.7c1,2.3,1,4.9-0.1,7.2c-1,2.3-2.9,4-5.3,4.9l-13.6,4.7C490.5,302.8,489.5,303,488.6,303z"/>
	<path class="st1" d="M256,424.9c-0.2,0-0.3,0-0.5,0l-4.1-0.5c-1.3-0.1-2.5-0.9-3.2-2.1c-0.7-1.2-0.8-2.5-0.3-3.8l21.2-50.4l0.5,0.2
		l-0.5-0.2c0.6-1.4,1.9-2.4,3.4-2.5c1.5-0.2,2.9,0.4,3.8,1.5c0.9,1.1,1.2,2.6,0.7,4L260,422C259.4,423.7,257.8,424.9,256,424.9z"/>
</g>
<path class="st4" d="M366.3,72.9c0,0-7.8-15.5-6.2-29.5l-25.9,13.4l1,25.4L366.3,72.9L366.3,72.9z"/>
<circle class="st4" cx="350.2" cy="40.6" r="23.3"/>
<g>
	<polygon class="st4" points="374.1,406.9 359.8,406.9 353.1,352 374.1,352 	"/>
	<path class="st5" d="M325.3,406.6L325.3,406.6c-0.4,0.7-0.7,3.2-0.7,4l0,0c0,2.7,2.2,4.8,4.8,4.8h44.1c1.8,0,3.3-1.5,3.3-3.3v-1.8
		c0,0,2.2-5.5-2.3-12.3c0,0-5.6,5.3-13.9-3l-2.5-4.5l-17.8,13l-9.9,1.2C328.3,405,326.4,404.7,325.3,406.6L325.3,406.6L325.3,406.6z
		"/>
</g>
<path class="st6" d="M332.1,72.9l34.2-4.7l26.4,12.4l1.6,96.3c0,0-65,7.8-75.2-2.3c-10.2-10.1-2.5-90.9-2.5-90.9L332.1,72.9
	L332.1,72.9z"/>
<path class="st5" d="M344.4,46.6h-6.3c0,0-5.4-6.7-4.7-2.6c0.7,4.1-2.2,8.5-2.2,8.5l-4.4-1.5c0,0-8.8-36.9,17.6-39
	s32.2,18.5,32.2,18.5s-1.5,10.2-4.4,7.3s-19-4.4-19-4.4L344.4,46.6L344.4,46.6z"/>
<g>
	<polygon class="st4" points="316.3,298.2 303.2,304 274.8,256.5 294.1,248 	"/>
	<path class="st5" d="M271.5,317.7L271.5,317.7c-0.1,0.9,0.7,3.2,1,4l0,0c1.1,2.4,3.9,3.5,6.4,2.5l40.3-17.8
		c1.7-0.7,2.4-2.7,1.7-4.3l-0.7-1.7c0,0-0.2-5.9-7.1-10.3c0,0-2.9,7.1-13.9,2.9l-4.1-3.1l-11,19.1l-8.5,5.1
		C273.7,315,271.8,315.5,271.5,317.7L271.5,317.7L271.5,317.7z"/>
</g>
<path class="st5" d="M389.6,167.7l4.7,14.1v48.5L379,274.1l1.2,102.3h-27.3l-3.1-104.4l2.4-51.6l-18.6-7.8l-49,3l22.9,56.3
	l-25.2,16.8c0,0-37.7-85.9-32.1-94.2c5.6-8.3,71.7-23,71.7-23S389.6,169.2,389.6,167.7L389.6,167.7z"/>
<g>
	<path class="st4" d="M403.6,111.7l7.5,12.3c0,0,10.6,41.7,0,41.9S379,144.7,379,144.7l2.8-11.2l7.8,3.1l-1.6-24.9L403.6,111.7
		L403.6,111.7z"/>
	<path class="st6" d="M380.3,80.5c0,0,24.9-4.4,27.2,11.9c2.3,16.3,3.6,31.7,3.6,31.7l-26.9,2.2L380.3,80.5L380.3,80.5z"/>
	<ellipse transform="matrix(0.5801 -0.8145 0.8145 0.5801 47.0332 361.5733)" class="st4" cx="374.2" cy="135.2" rx="7" ry="14"/>
</g>
<path class="st0" d="M590.5,306.8c-3.2,0.3-6.6,0.9-10.3,1.6c-15.6,3.2-15.9,13.7-15.7,16.1l-0.1-0.1c-1.6,2.5-2.5,5-3.1,7.4
	l-0.7-32.4c0.5-1,0.9-2,1.2-3.2c1.2,3.6,3.1,7,4.7,6.7c2.1-0.3,3.1-6.6,2.7-11.1c2.7,3.5,7.3,7.2,9,6.1c1.4-0.9,0.6-4.7-0.9-8.2
	c3.1,1.9,6.6,3.1,7.7,1.9c1.5-1.6-2.1-7.2-5.3-10.4c4.4,0.4,9.9-0.3,10.3-2.3c0.3-1.6-3-3.7-6.5-5c3.5-0.9,6.9-2.6,6.7-4.2
	c-0.1-1.9-5.1-3.2-9.3-3.4c3.2-2.5,6.1-6,5.2-7.5c-0.8-1.4-4.7-0.9-8.2,0.4c2.1-3,3.6-6.4,2.5-7.5c-1.4-1.4-6.4,1-9.8,3.8
	c0.7-4.3,0.3-9.7-1.6-10.2c-1.6-0.4-3.9,2.7-5.5,6.2c-0.7-3.6-2.1-7-3.7-7c-2.3,0-4.2,6.9-4.2,11.5c0,0.3,0,0.5,0,0.7
	c-0.2-0.3-0.5-0.5-0.8-0.8c-3.2-3.1-9.5-6.6-11.1-5c-1.1,1.2,0.4,4.5,2.5,7.5c-3.5-1.3-7.4-1.8-8.2-0.4c-1.1,1.9,3.6,6.8,7.5,9.1
	c-0.2,0-0.5-0.1-0.7-0.1c-4.5-0.3-11.6,1.1-11.7,3.4c-0.1,1.6,3.2,3.2,6.7,4.2c-3.5,1.3-6.8,3.4-6.5,5c0.4,2,5.9,2.7,10.3,2.3
	c-3.3,3.1-6.8,8.7-5.3,10.4c1.1,1.2,4.6,0,7.7-1.9c-1.5,3.5-2.3,7.3-0.9,8.2c1.8,1.2,6.8-3,9.5-6.7c-0.3,4.5,0.8,10.6,2.9,10.9
	c0.9,0.1,1.8-0.8,2.7-2.3l-2.4,34.8c-0.6,4.1,3,6.7,3.4,8.4l0.5,23.6c-0.6-1.7-1.4-3.4-2.4-5.1l-0.1,0.1c0.1-2.4-0.2-13-15.7-16.1
	c-3.7-0.7-7.1-1.3-10.3-1.6c-3.7-0.4-5.2,4.7-1.8,6.4c4.9,2.4,9.5,5.4,11.9,9c6.1,9.1,14.6,3.8,15.8,3c1.3,2.2,2.2,4.5,2.8,6.6
	l0.3,12.5c-0.1,0.3-0.1,0.5-0.1,0.5l0.1,0l0.7,30.3l6.2,0l-2.2-30.9c0.4-1.7,1.5-7.4,0-13.3l-2.2-24.3l0,0c0,0,0.1,0.6,0,0l-2.9-9.6
	c0.4-3,1.4-6.3,3.4-9.6c1.2,0.8,9.7,6.1,15.8-3c2.4-3.6,7-6.6,11.9-9C595.7,311.5,594.2,306.4,590.5,306.8L590.5,306.8z
	 M562.2,378.4l-0.1-5.3C562.4,375.1,562.4,376.9,562.2,378.4z"/>
<g>
	<polygon class="st4" points="518.5,409.1 529.3,406.8 525.4,364.2 509.6,367.6 	"/>
	<path class="st5" d="M555.3,400.9L555.3,400.9c0.5,0.5,1,2.3,1.2,2.9l0,0c0.4,2-0.8,4-2.9,4.4l-33.3,7.2c-1.4,0.3-2.7-0.6-3-2
		l-0.3-1.4c0,0-2.5-3.8-0.3-9.7c0,0,5.1,3.1,10-4.5l1.1-3.8l15.6,6.9l7.6-0.7C552.7,400.2,554.1,399.6,555.3,400.9L555.3,400.9
		L555.3,400.9z"/>
</g>
<g>
	<polygon class="st4" points="537.7,405.8 546.7,399.5 526.4,361.9 513.2,371.2 	"/>
	<path class="st5" d="M568.3,383.8L568.3,383.8c0.6,0.3,1.8,1.7,2.2,2.2l0,0c1.2,1.7,0.8,4-0.9,5.2L541.9,411
		c-1.1,0.8-2.7,0.5-3.5-0.6l-0.8-1.2c0,0-3.8-2.5-4-8.8c0,0,5.9,0.9,7.4-8.1l-0.4-3.9l17,0.2l6.8-3.6
		C565.7,384.2,566.8,383.1,568.3,383.8L568.3,383.8L568.3,383.8z"/>
</g>
<path class="st5" d="M408.6,195.5c0,0-16.7,22.7,16.7,48.3l68.3-21.8l-24.4-50.8l-21.6-11.8L408.6,195.5L408.6,195.5z"/>
<polyline class="st5" points="493.6,221.9 520,273.5 536.7,380.7 515.9,382.1 495,280.4 458.1,225.4 483.8,213.6 "/>
<path class="st5" d="M425.3,227.6v16.2l47.4,52c0,0,0,39,18.1,57.1l20.9,32l18.1-9.8l-26.5-93.3L456,220.5L425.3,227.6L425.3,227.6z
	"/>
<path class="st4" d="M459,67.1l-8.9,34l-34-6.7c0,0,23.7-24.5,20.4-35.6L459,67.1L459,67.1z"/>
<path class="st1" d="M433,72.2l20.9,9.8c0,0,10.7,6.6,10.9,10.9s-1.2,25.3-1.2,25.3s8.4,8.4,2.8,25.1l2.8,27.9l-62.7,33.4l5.6-58.5
	l-2.8-54.3L433,72.2L433,72.2z"/>
<g>
	<path id="uuid-890a8f78-7002-4fae-ad75-e03b10042fc6-77" class="st4" d="M414.2,230.7c2.4,5.6,7.3,8.9,10.9,7.3
		c3.6-1.6,4.5-7.4,2-13c-0.9-2.3-2.4-4.3-4.3-5.8l-10.7-23.7l-11,5.2l11.7,22.8C412.8,226,413.2,228.5,414.2,230.7L414.2,230.7z"/>
	<path class="st1" d="M425.3,95.2c0,0-15.3-9.8-20.9,1.4s-18.1,68.3-18.1,68.3l18.1,54.3l16.7-7l-14.6-58.5L425.3,95.2L425.3,95.2z"
		/>
</g>
<g>
	<path id="uuid-bf6bc2d3-f134-421c-a442-5bb07c25212c-78" class="st4" d="M503.8,221.9c4.3,4.3,10.1,5.6,12.8,2.8s1.5-8.5-2.9-12.8
		c-1.7-1.7-3.8-3.1-6.1-3.8L489,190.1l-8.3,8.9l19.2,16.9C500.8,218.1,502.1,220.2,503.8,221.9L503.8,221.9z"/>
	<path class="st1" d="M464.2,91.9c0,0-26.7-1.1-27.8,11.3s17.2,67.8,17.2,67.8l36.8,43.8l13-12.6l-35.1-49
		C468.3,153.2,464.2,91.9,464.2,91.9z"/>
</g>
<g>
	<path class="st2" d="M437.9,172.6l-22.3-67.7c-18-15.9-37.6,22.4-90.1,0.7l16.5,76.6C381.7,160.7,415.9,152.3,437.9,172.6z"/>
	<path class="st1" d="M342,183.2c-0.1,0-0.3,0-0.4-0.1c-0.3-0.1-0.5-0.4-0.6-0.7l-16.5-76.6c-0.1-0.4,0.1-0.7,0.3-1
		c0.3-0.2,0.7-0.3,1-0.2c29.8,12.3,49.1,5,63.2-0.4c10.7-4.1,19.1-7.3,27.3-0.1c0.1,0.1,0.2,0.3,0.3,0.4l22.3,67.7
		c0.1,0.4,0,0.9-0.4,1.2c-0.4,0.2-0.9,0.2-1.2-0.1c-19.4-17.9-49.5-14.8-94.8,9.7C342.3,183.1,342.2,183.2,342,183.2z M326.9,107.2
		l15.8,73.5c43.5-23.3,73.2-26.9,93.2-11.1l-21.1-64.1c-7.2-6.1-14.7-3.3-25,0.7C375.7,111.5,356.4,118.8,326.9,107.2z"/>
</g>
<g>
	<path class="st4" d="M298.6,112.7l-7.5,12.3c0,0-10.6,41.7,0,41.9s32.1-21.3,32.1-21.3l-2.8-11.2l-7.8,3.1l1.6-24.9L298.6,112.7
		L298.6,112.7z"/>
	<path class="st6" d="M321.9,81.5c0,0-24.9-4.4-27.2,11.9c-2.3,16.3-3.6,31.7-3.6,31.7l26.9,2.2L321.9,81.5L321.9,81.5z"/>
	<ellipse transform="matrix(0.8145 -0.5801 0.5801 0.8145 -18.1717 215.4944)" class="st4" cx="327.9" cy="136.2" rx="14" ry="7"/>
</g>
<g>
	<path class="st4" d="M473.5,48.9c0,12.8-10.4,23.2-23.2,23.2s-23.2-10.4-23.2-23.2s10.4-23.2,23.2-23.2S473.5,36.1,473.5,48.9z"/>
	<path class="st5" d="M448.4,17.7c0.7,0.4,1.6-0.2,1.8-0.9c0.2-0.7,0-1.5-0.3-2.3c-0.4-1.2-0.8-2.5-1.3-3.7
		c-0.9-2.6-1.8-5.4-3.8-7.4c-2.9-3-7.5-3.8-11.7-3.2c-5.3,0.7-10.6,3.6-13.1,8.4S418.8,20,423.2,23c-6.4,7.3-8.6,15.5-8.3,25.2
		s10.9,18.6,17.8,25.5c1.5-0.9,2.9-5.3,2.1-6.9c-0.8-1.6,0.4-3.4-0.7-4.9c-1-1.5-1.9,0.9-0.9-0.6c0.7-0.9-1.9-3-0.9-3.6
		c4.8-2.7,6.4-8.7,9.4-13.3c3.6-5.5,9.9-9.3,16.5-9.9c3.6-0.3,7.5,0.3,10.5,2.4c3,2.1,4.9,5.9,4.2,9.5c1.8-1.8,2.7-4.5,2.3-7
		c-0.3-2.5-1.9-4.9-4.1-6.2c1.3-4.4,0.2-9.5-2.9-13c-3.1-3.4-15.7-2.8-20.3-1.9L448.4,17.7L448.4,17.7z"/>
	<path class="st5" d="M447.7,34.6c-6,0.6-10.4,5.9-14,10.7c-2.1,2.8-4.3,5.8-4.3,9.3c0.1,3.5,2.4,6.5,3.5,9.9c1.8,5.5,0,12-4.3,15.7
		c4.3,0.8,9-2.4,9.8-6.8c0.9-5.1-3-9.9-2.5-15c0.4-4.5,3.9-8,7-11.3c3-3.4,5.8-7.8,4.5-12.1C447.3,34.9,447.7,34.6,447.7,34.6z"/>
</g>
</svg>
